# xmcd CD database file
#
# Track frame offsets:
#       150
#       13501
#       26550
#       43899
#       59880
#       73716
#       83006
#       100733
#       111637
#       133980
#       151578
#
# Disc length: 2214 seconds
#
# Revision: 
# Submitted via: crip v3.7 (http://bach.dynet.com/crip)
#
# Revision: 0
# Processed by: cddbd v1.5.2PL0 Copyright (c) Steve Scherf et al.
#
DISCID=9708a40b
DTITLE=The Darling Downs - From One to Another
DYEAR=2007
DGENRE=country
TTITLE0=A Moment of Despair
TTITLE1=Gather Round (Stomp It Down)
TTITLE2=Every Time We Say Goodbye
TTITLE3=Circa '65
TTITLE4=Something Special
TTITLE5=Lately
TTITLE6=I'll See You There
TTITLE7=The Only Home I've Ever Known
TTITLE8=Redeemed
TTITLE9=There's a Light (part 2)
TTITLE10=Somewhere There's a Place Where I'll Be Fine
EXTD=
EXTT0=
EXTT1=
EXTT2=
EXTT3=
EXTT4=
EXTT5=
EXTT6=
EXTT7=
EXTT8=
EXTT9=
EXTT10=
PLAYORDER=
